<svg width="1028" height="1024" viewBox="0 0 1028 1024" fill="none" xmlns="http://www.w3.org/2000/svg">
<path d="M773.437 -46.5028C686.998 104.302 477.679 456.711 470.461 469.278C421.872 285.728 374.867 108.373 326.102 -75C305.329 -39.7768 182.625 169.085 165.548 198.467C147.943 228.557 27.5274 433.524 4.11325 471.58C-37.0816 295.463 -77.0441 124.303 -116.831 -46.1488C-200.981 -46.1488 -282.314 -46.1488 -364 -46.1488C-351.853 5.88954 -112.429 970.546 -99.226 1024C16.2606 831.246 126.113 639.554 243.889 442.728C298.111 640.262 348.636 826.113 402.859 1024C608.129 678.14 829.772 303.605 1028 -46.3258H773.437V-46.5028Z" fill="black"/>
</svg>
