<svg width="1392" height="1099" viewBox="0 0 1392 1099" fill="none" xmlns="http://www.w3.org/2000/svg">
<path d="M1137.44 28.4972C1051 179.302 841.679 531.711 834.461 544.278C785.872 360.728 738.867 183.373 690.102 0C669.329 35.2232 546.625 244.085 529.548 273.467C511.943 303.557 391.527 508.524 368.113 546.58C326.918 370.463 286.956 199.303 247.169 28.8512C163.019 28.8512 81.6856 28.8512 0 28.8512C12.1472 80.8895 251.571 1045.55 264.774 1099C380.261 906.246 490.113 714.554 607.889 517.728C662.111 715.262 712.636 901.113 766.859 1099C972.129 753.14 1193.77 378.605 1392 28.6742H1137.44V28.4972Z" fill="black"/>
</svg>
