<svg width="33" height="33" viewBox="0 0 33 33" fill="none" xmlns="http://www.w3.org/2000/svg">
<path d="M28.3599 8.30273V10.9694H25.6932H28.3599" stroke="white" stroke-width="2" stroke-linecap="round" stroke-linejoin="round"/>
<path d="M10.8279 15.2253C10.8279 14.1439 11.7052 13.2666 12.7865 13.2666C13.8679 13.2666 14.7452 14.1439 14.7452 15.2253C14.7452 17.6733 10.8292 17.6733 10.8292 20.5719H14.7452" stroke="white" stroke-width="2" stroke-linecap="round" stroke-linejoin="round"/>
<path d="M21.9039 16.9596L18.5546 16.9236C18.3652 16.9209 18.2119 16.7676 18.2119 16.5769V13.2676" stroke="white" stroke-width="2" stroke-linecap="round" stroke-linejoin="round"/>
<path d="M21.8986 13.3467V20.5733" stroke="white" stroke-width="2" stroke-linecap="round" stroke-linejoin="round"/>
<path d="M27.7787 10.9703C25.6414 7.10092 21.4881 4.47559 16.7121 4.47559C9.83873 4.47559 4.26807 10.0476 4.26807 16.9196C4.26807 23.7916 9.83873 29.3636 16.7121 29.3636C23.5854 29.3636 29.1561 23.7916 29.1561 16.9196" stroke="white" stroke-width="2" stroke-linecap="round" stroke-linejoin="round"/>
</svg>
