<svg width="21" height="41" viewBox="0 0 21 41" fill="none" xmlns="http://www.w3.org/2000/svg">
<path d="M16.1647 15.917H6.23809C4.81865 15.917 3.66797 17.0677 3.66797 18.4871V35.1194C3.66797 36.5389 4.81865 37.6896 6.23809 37.6896H16.1647C17.5842 37.6896 18.7349 36.5389 18.7349 35.1194V18.4871C18.7349 17.0677 17.5842 15.917 16.1647 15.917Z" stroke="#0C1718" stroke-width="2" stroke-miterlimit="10"/>
<path d="M6.97219 9.56494H15.4052C15.9826 9.56494 16.4516 10.0339 16.4516 10.6113V15.9318H5.92578V10.6113C5.92578 10.0339 6.39474 9.56494 6.97219 9.56494Z" stroke="#0C1718" stroke-width="2" stroke-miterlimit="10"/>
<path d="M7.94922 9.56507V7.03C7.94922 4.81702 9.74329 3.02295 11.9563 3.02295H15.965C16.3422 3.02295 16.6492 3.33003 16.6492 3.7072V4.65681C16.6492 4.83872 16.5775 5.01229 16.449 5.14079L14.508 7.08173V9.56507" stroke="#0C1718" stroke-width="2" stroke-miterlimit="10"/>
<path d="M13.4414 20.8818H9.08722C8.62268 20.8818 8.24609 21.2584 8.24609 21.723V32.434C8.24609 32.8986 8.62268 33.2751 9.08722 33.2751H13.4414C13.9059 33.2751 14.2825 32.8986 14.2825 32.434V21.723C14.2825 21.2584 13.9059 20.8818 13.4414 20.8818Z" stroke="#0C1718" stroke-width="2" stroke-miterlimit="10"/>
</svg>
