<svg width="49" height="49" viewBox="0 0 49 49" fill="none" xmlns="http://www.w3.org/2000/svg">
<path d="M21.6491 38.2625H12.0385C8.47114 38.2625 5.58008 35.437 5.58008 31.9506V24.0276C5.58008 23.3171 6.17182 22.7388 6.89881 22.7388H37.8805C38.6075 22.7388 39.1992 23.3171 39.1992 24.0276V26.0588" stroke="#00291F" stroke-width="3" stroke-linecap="round" stroke-linejoin="round"/>
<path d="M10.5934 17.1138H34.1277C35.1759 17.1138 36.0297 17.9482 36.0297 18.9727V22.7483H8.69141V18.9727C8.69141 17.9482 9.5452 17.1138 10.5934 17.1138Z" stroke="#00291F" stroke-width="3" stroke-miterlimit="10"/>
<path d="M31.9211 17.2693C37.83 12.998 32.8594 9.12329 30.6446 7.75184C30.2388 7.50399 29.7739 7.77663 29.6556 8.26407C28.7003 12.3949 18.9367 11.6927 15.1918 11.1226C11.168 10.5113 9.58722 14.0473 11.168 16.5588L11.3878 16.9884" stroke="#00291F" stroke-width="3" stroke-miterlimit="10"/>
<path d="M25.3535 41.9809C28.9378 37.6683 32.5135 36.1233 34.5931 35.8755" stroke="#00291F" stroke-width="3" stroke-linecap="round" stroke-linejoin="round"/>
<path d="M28.6836 38.3123C26.9337 34.4045 29.6811 29.2823 36.0127 30.2572C40.679 31.0668 42.674 33.6775 43.2572 34.3219C41.5074 35.462 40.679 39.6094 37.1792 41.5675C33.6795 43.5255 29.1823 41.8897 28.6836 38.3123V38.3123Z" stroke="#00291F" stroke-width="3" stroke-linecap="round" stroke-linejoin="round"/>
</svg>
