<svg width="37" height="37" viewBox="0 0 37 37" fill="none" xmlns="http://www.w3.org/2000/svg">
<g clip-path="url(#clip0_2813_30516)">
<path d="M14.991 29.8384C15.4335 29.7799 15.8805 29.8999 16.233 30.1714L17.8575 31.4179C18.3945 31.8304 19.1415 31.8304 19.677 31.4179L21.363 30.1234C21.678 29.8819 22.0755 29.7754 22.4685 29.8279L24.5775 30.1054C25.248 30.1939 25.8945 29.8204 26.154 29.1949L26.9655 27.2329C27.117 26.8654 27.408 26.5744 27.7755 26.4229L29.7375 25.6114C30.363 25.3534 30.7365 24.7054 30.648 24.0349L30.381 22.0024C30.3225 21.5599 30.4425 21.1129 30.714 20.7604L31.9605 19.1359C32.373 18.5989 32.373 17.8519 31.9605 17.3164L30.666 15.6304C30.4245 15.3154 30.318 14.9179 30.3705 14.5249L30.648 12.4159C30.7365 11.7454 30.363 11.0989 29.7375 10.8394L27.7755 10.0279C27.408 9.87644 27.117 9.58544 26.9655 9.21794L26.154 7.25594C25.896 6.63044 25.248 6.25694 24.5775 6.34544L22.4685 6.62294C22.0755 6.67694 21.678 6.57044 21.3645 6.33044L19.6785 5.03594C19.1415 4.62344 18.3945 4.62344 17.859 5.03594L16.173 6.33044C15.858 6.57044 15.4605 6.67694 15.0675 6.62594L12.9585 6.34844C12.288 6.25994 11.6415 6.63344 11.382 7.25894L10.572 9.22094C10.419 9.58694 10.128 9.87794 9.76195 10.0309L7.79995 10.8409C7.17445 11.1004 6.80095 11.7469 6.88945 12.4174L7.16695 14.5264C7.21795 14.9194 7.11145 15.3169 6.87145 15.6304L5.57695 17.3164C5.16445 17.8534 5.16445 18.6004 5.57695 19.1359L6.87145 20.8219C7.11295 21.1369 7.21945 21.5344 7.16695 21.9274L6.88945 24.0364C6.80095 24.7069 7.17445 25.3534 7.79995 25.6129L9.76195 26.4244C10.1295 26.5759 10.4205 26.8669 10.572 27.2344L11.3835 29.1964C11.6415 29.8219 12.2895 30.1954 12.96 30.1069L14.991 29.8384" stroke="#0C1718" stroke-width="2" stroke-linecap="round" stroke-linejoin="round"/>
<path d="M22.9645 16.1289L17.713 21.3804L14.5645 18.2304" stroke="#0C1718" stroke-width="2" stroke-linecap="round" stroke-linejoin="round"/>
</g>
<defs>
<clipPath id="clip0_2813_30516">
<rect width="36" height="36" fill="white" transform="translate(0.767578 0.226562)"/>
</clipPath>
</defs>
</svg>
