<svg width="19" height="19" viewBox="0 0 19 19" fill="none" xmlns="http://www.w3.org/2000/svg">
<path d="M1.74438 7.9082H17.4822" stroke="white" stroke-width="1.5" stroke-linecap="round" stroke-linejoin="round"/>
<path d="M12.6731 1.35083V3.97379" stroke="white" stroke-width="1.5" stroke-linecap="round" stroke-linejoin="round"/>
<path d="M6.5531 1.35083V3.97379" stroke="white" stroke-width="1.5" stroke-linecap="round" stroke-linejoin="round"/>
<path d="M14.8592 17.3509H4.36736V17.3509C2.91874 17.3509 1.7444 16.1765 1.74438 14.7279C1.74438 14.7279 1.74438 14.7279 1.74438 14.7279V5.28521V5.28521C1.74438 3.83658 2.91873 2.66223 4.36736 2.66223C4.36736 2.66223 4.36736 2.66223 4.36736 2.66223H14.8592H14.8592C16.3079 2.66223 17.4822 3.83658 17.4822 5.28521C17.4822 5.28521 17.4822 5.28521 17.4822 5.28521V14.7279V14.7279C17.4822 16.1765 16.3079 17.3509 14.8593 17.3509C14.8593 17.3509 14.8592 17.3509 14.8592 17.3509V17.3509Z" stroke="white" stroke-width="1.5" stroke-linecap="round" stroke-linejoin="round"/>
</svg>
