<svg width="49" height="48" viewBox="0 0 49 48" fill="none" xmlns="http://www.w3.org/2000/svg">
<path d="M24.3459 31.8301C25.0717 32.3744 26.2559 32.7182 27.23 32.7182C29.6461 32.7182 31.6039 30.7605 31.6039 28.3444C31.6039 27.227 31.1932 26.2147 30.5056 25.4412C30.5056 25.4412 30.9927 19.6157 24.4128 19.6157C17.8329 19.6157 18.3199 25.4412 18.3199 25.4412C17.6323 26.2147 17.2217 27.227 17.2217 28.3444C17.2217 30.7605 19.1794 32.7182 21.5955 32.7182C22.5792 32.7182 23.6106 32.3744 24.3364 31.8301H24.3459Z" stroke="#00291F" stroke-width="2.5" stroke-linecap="round" stroke-linejoin="round"/>
<path d="M24.3456 31.8302L24.3456 29.7368" stroke="#00291F" stroke-width="2.5" stroke-linecap="round" stroke-linejoin="round"/>
<path d="M26.0171 28.7788C25.5969 29.2181 24.9952 29.4951 24.3363 29.4951C23.6773 29.4951 23.0852 29.2181 22.665 28.7788" stroke="#00291F" stroke-width="2.5" stroke-linecap="round" stroke-linejoin="round"/>
<path d="M21.691 19.9783C21.2231 16.2348 19.8193 12.8827 17.4604 14.1051C15.1016 15.3275 18.2626 20.5418 19.2367 21.7737" stroke="#00291F" stroke-width="2.5" stroke-linecap="round" stroke-linejoin="round"/>
<path d="M27.01 19.9119C27.478 16.1684 28.8818 12.8163 31.2406 14.0387C33.5995 15.2611 30.4384 20.4754 29.4643 21.7073" stroke="#00291F" stroke-width="2.5" stroke-linecap="round" stroke-linejoin="round"/>
<circle cx="24.4189" cy="23.4575" r="18" stroke="#00291F" stroke-width="2.5"/>
<path d="M37.1023 10.2661L31.9316 15.4369" stroke="#00291F" stroke-width="2.5"/>
<path d="M17.6257 29.5364L11.4551 35.707" stroke="#00291F" stroke-width="2.5"/>
</svg>
