<svg width="18" height="18" viewBox="0 0 18 18" fill="none" xmlns="http://www.w3.org/2000/svg">
<g clip-path="url(#clip0_1237_26857)">
<path d="M16.5 10.4969H13.875C13.7755 10.4969 13.6802 10.4574 13.6098 10.3871C13.5395 10.3168 13.5 10.2214 13.5 10.1219V7.49692H15.9" stroke="#404F54" stroke-width="1.2" stroke-linecap="round" stroke-linejoin="round"/>
<path d="M13.9174 13.8295C14.0747 13.9868 14.1819 14.1872 14.2253 14.4055C14.2687 14.6237 14.2465 14.8499 14.1613 15.0555C14.0762 15.261 13.932 15.4367 13.747 15.5604C13.562 15.684 13.3445 15.75 13.122 15.75C12.8995 15.75 12.682 15.684 12.497 15.5604C12.312 15.4368 12.1678 15.2611 12.0826 15.0556C11.9974 14.85 11.9752 14.6238 12.0186 14.4056C12.062 14.1874 12.1691 13.9869 12.3264 13.8296L12.3265 13.8295C12.5375 13.6185 12.8236 13.5 13.1219 13.5C13.4203 13.5 13.7064 13.6185 13.9174 13.8295V13.8295" stroke="#404F54" stroke-width="1.2" stroke-linecap="round" stroke-linejoin="round"/>
<path d="M5.6674 13.8295C5.82475 13.9868 5.9319 14.1872 5.97532 14.4055C6.01874 14.6237 5.99647 14.8499 5.91134 15.0555C5.8262 15.261 5.68201 15.4367 5.49701 15.5604C5.31201 15.684 5.09451 15.75 4.87201 15.75C4.6495 15.75 4.43199 15.684 4.24698 15.5604C4.06197 15.4368 3.91777 15.2611 3.83261 15.0556C3.74745 14.85 3.72516 14.6238 3.76855 14.4056C3.81195 14.1874 3.91909 13.9869 4.07641 13.8296V13.8296L4.07664 13.8293C4.28757 13.6184 4.57365 13.4999 4.87195 13.4999C5.17025 13.4999 5.45633 13.6184 5.66726 13.8293L5.66739 13.8294" stroke="#404F54" stroke-width="1.2" stroke-linecap="round" stroke-linejoin="round"/>
<path d="M12.0611 14.25H5.93286" stroke="#404F54" stroke-width="1.2" stroke-linecap="round" stroke-linejoin="round"/>
<path d="M14.1828 14.25H15.75C15.9489 14.25 16.1397 14.171 16.2803 14.0303C16.421 13.8897 16.5 13.6989 16.5 13.5V9.28595C16.5 9.09522 16.4636 8.90625 16.3928 8.72917L15.3767 6.18975C15.2654 5.91143 15.0732 5.67285 14.8249 5.5048C14.5767 5.33674 14.2838 5.24692 13.984 5.24692H11.25" stroke="#404F54" stroke-width="1.2" stroke-linecap="round" stroke-linejoin="round"/>
<path d="M3.81119 14.25H2.25C2.05109 14.25 1.86032 14.171 1.71967 14.0303C1.57902 13.8897 1.5 13.6989 1.5 13.5V9" stroke="#404F54" stroke-width="1.2" stroke-linecap="round" stroke-linejoin="round"/>
<path d="M1.5 11.2469H10.5C10.6989 11.2469 10.8897 11.1679 11.0303 11.0272C11.171 10.8866 11.25 10.6958 11.25 10.4969V4.49692C11.25 4.29801 11.171 4.10724 11.0303 3.96659C10.8897 3.82594 10.6989 3.74692 10.5 3.74692H9.75" stroke="#404F54" stroke-width="1.2" stroke-linecap="round" stroke-linejoin="round"/>
<path d="M4.5 7.5C6.15685 7.5 7.5 6.15685 7.5 4.5C7.5 2.84315 6.15685 1.5 4.5 1.5C2.84315 1.5 1.5 2.84315 1.5 4.5C1.5 6.15685 2.84315 7.5 4.5 7.5Z" stroke="#404F54" stroke-width="1.2" stroke-linecap="round" stroke-linejoin="round"/>
<path d="M3.5625 4.3875L4.3125 5.1375L5.4375 4.0125" stroke="#404F54" stroke-width="1.2" stroke-linecap="round" stroke-linejoin="round"/>
</g>
<defs>
<clipPath id="clip0_1237_26857">
<rect width="18" height="18" fill="white"/>
</clipPath>
</defs>
</svg>
