<svg width="40" height="37" viewBox="0 0 40 37" fill="none" xmlns="http://www.w3.org/2000/svg">
<path d="M10.436 32.3519H26.2317" stroke="#7E8D93" stroke-width="2" stroke-linecap="round" stroke-linejoin="round"/>
<path d="M29.0126 29.571C28.2751 29.571 27.5677 29.864 27.0462 30.3856C26.5247 30.9071 26.2317 31.6144 26.2317 32.352C26.2317 33.0895 26.5247 33.7969 27.0462 34.3184C27.5677 34.8399 28.2751 35.1329 29.0126 35.1329C29.7502 35.1329 30.4575 34.8399 30.979 34.3184C31.5006 33.7969 31.7935 33.0895 31.7935 32.352C31.7935 31.6144 31.5006 30.9071 30.979 30.3856C30.4575 29.864 29.7502 29.571 29.0126 29.571Z" stroke="#7E8D93" stroke-width="2" stroke-linecap="round" stroke-linejoin="round"/>
<path d="M7.63652 29.571C6.89897 29.571 6.19163 29.864 5.67011 30.3856C5.14858 30.9071 4.85559 31.6144 4.85559 32.352C4.85559 33.0895 5.14858 33.7969 5.67011 34.3184C6.19163 34.8399 6.89897 35.1329 7.63652 35.1329C8.37407 35.1329 9.08141 34.8399 9.60293 34.3184C10.1245 33.7969 10.4174 33.0895 10.4174 32.352C10.4174 31.6144 10.1245 30.9071 9.60293 30.3856C9.08141 29.864 8.37407 29.571 7.63652 29.571Z" stroke="#7E8D93" stroke-width="2" stroke-linecap="round" stroke-linejoin="round"/>
<path d="M1.20334 23.7496H24.3777H24.3592C24.8598 23.7496 25.2862 23.3232 25.2862 22.8226V11.013C25.2862 8.95507 23.6176 7.30505 21.5783 7.30505H4.8927H4.87416C2.81628 7.30505 1.16626 8.95507 1.16626 11.013V30.4795C1.16626 31.4991 1.982 32.3149 3.02021 32.3149H4.81855" stroke="#7E8D93" stroke-width="2" stroke-linecap="round" stroke-linejoin="round"/>
<path d="M25.3047 11.0315H31.3115V11.0296C33.2581 11.0111 35.0009 12.2347 35.6683 14.0701L38.0413 20.6331C38.1711 21.0224 38.2453 21.4488 38.2453 21.8938V29.5321C38.2453 31.0523 36.9846 32.313 35.4643 32.313H31.7564" stroke="#7E8D93" stroke-width="2" stroke-linecap="round" stroke-linejoin="round"/>
<path d="M38.2823 22.1552H32.7205L31.4042 20.8389C31.0519 20.4866 30.5699 20.2827 30.0879 20.2827H25.2861" stroke="#7E8D93" stroke-width="2" stroke-linecap="round" stroke-linejoin="round"/>
</svg>
