<svg width="33" height="33" viewBox="0 0 33 33" fill="none" xmlns="http://www.w3.org/2000/svg">
<g clip-path="url(#clip0_1237_29834)">
<path d="M28.7119 16.9199C28.7119 23.5473 23.3393 28.9199 16.7119 28.9199C10.0845 28.9199 4.71191 23.5473 4.71191 16.9199C4.71191 10.2925 10.0845 4.91992 16.7119 4.91992" stroke="white" stroke-width="2" stroke-linecap="round" stroke-linejoin="round"/>
<path d="M25.1654 4.10921V4.10921C25.4308 3.6232 26.04 3.44436 26.526 3.70977C26.6946 3.80188 26.8333 3.94053 26.9254 4.10921L27.7027 5.52921V5.52921C27.795 5.69812 27.9338 5.83697 28.1027 5.92921L29.5227 6.70521V6.70521C30.0091 6.96994 30.1888 7.57884 29.9241 8.06521C29.8317 8.23484 29.6924 8.3742 29.5227 8.46653L28.1027 9.24387V9.24387C27.9334 9.33555 27.7944 9.47454 27.7027 9.64387L26.9254 11.0625V11.0625C26.66 11.5485 26.0509 11.7274 25.5648 11.462C25.3962 11.3699 25.2575 11.2312 25.1654 11.0625L24.3881 9.64253V9.64253C24.2964 9.47321 24.1574 9.33422 23.9881 9.24253L22.5681 8.46653V8.46653C22.0817 8.2018 21.902 7.59291 22.1667 7.10653C22.2591 6.9369 22.3984 6.79754 22.5681 6.70521L23.9881 5.92921V5.92921C24.157 5.83697 24.2958 5.69812 24.3881 5.52921L25.1654 4.10921Z" stroke="white" stroke-width="2"/>
<path d="M12.7119 13.3604V14.6937" stroke="white" stroke-width="2" stroke-linecap="round" stroke-linejoin="round"/>
<path d="M20.7119 13.3604V14.6937" stroke="white" stroke-width="2" stroke-linecap="round" stroke-linejoin="round"/>
<path d="M21.0343 20.4639V20.4639C18.6467 22.8495 14.7778 22.8495 12.3903 20.4639" stroke="white" stroke-width="2" stroke-linecap="round" stroke-linejoin="round"/>
</g>
<defs>
<clipPath id="clip0_1237_29834">
<rect width="32" height="32" fill="white" transform="translate(0.711914 0.919922)"/>
</clipPath>
</defs>
</svg>
