<svg width="49" height="49" viewBox="0 0 49 49" fill="none" xmlns="http://www.w3.org/2000/svg">
<g clip-path="url(#clip0_1237_29407)">
<path d="M42.9189 24.8345C42.9189 34.7756 34.8601 42.8345 24.9189 42.8345C14.9778 42.8345 6.91895 34.7756 6.91895 24.8345C6.91895 14.8934 14.9778 6.83447 24.9189 6.83447" stroke="#00291F" stroke-width="3" stroke-linecap="round" stroke-linejoin="round"/>
<path d="M37.5992 5.61791V5.61791C37.9974 4.8889 38.9111 4.62064 39.6401 5.01876C39.8931 5.15693 40.1011 5.3649 40.2392 5.61791L41.4052 7.74791V7.74791C41.5436 8.00129 41.7519 8.20956 42.0052 8.34791L44.1352 9.51191V9.51191C44.8648 9.90901 45.1343 10.8224 44.7372 11.5519C44.5987 11.8064 44.3897 12.0154 44.1352 12.1539L42.0052 13.3199V13.3199C41.7512 13.4574 41.5428 13.6659 41.4052 13.9199L40.2392 16.0479V16.0479C39.8411 16.7769 38.9274 17.0452 38.1984 16.6471C37.9454 16.5089 37.7374 16.3009 37.5992 16.0479L36.4332 13.9179V13.9179C36.2957 13.6639 36.0872 13.4554 35.8332 13.3179L33.7032 12.1539V12.1539C32.9737 11.7568 32.7042 10.8435 33.1013 10.1139C33.2398 9.85945 33.4488 9.65041 33.7032 9.51191L35.8332 8.34791V8.34791C36.0866 8.20955 36.2949 8.00129 36.4332 7.74791L37.5992 5.61791Z" stroke="#00291F" stroke-width="3"/>
<path d="M18.9189 19.4946V21.4946" stroke="#00291F" stroke-width="3" stroke-linecap="round" stroke-linejoin="round"/>
<path d="M30.9189 19.4946V21.4946" stroke="#00291F" stroke-width="3" stroke-linecap="round" stroke-linejoin="round"/>
<path d="M31.4025 30.1509V30.1509C27.8212 33.7293 22.0178 33.7293 18.4365 30.1509" stroke="#00291F" stroke-width="3" stroke-linecap="round" stroke-linejoin="round"/>
</g>
<defs>
<clipPath id="clip0_1237_29407">
<rect width="48" height="48" fill="white" transform="translate(0.918945 0.834473)"/>
</clipPath>
</defs>
</svg>
