<svg width="25" height="25" viewBox="0 0 25 25" fill="none" xmlns="http://www.w3.org/2000/svg">
<path d="M12.791 3.14247C15.995 3.14247 16.375 3.15447 17.64 3.21247C18.948 3.27247 20.295 3.57047 21.248 4.52347C22.21 5.48547 22.499 6.81947 22.559 8.13147C22.617 9.39647 22.629 9.77647 22.629 12.9805C22.629 16.1845 22.617 16.5645 22.559 17.8295C22.5 19.1305 22.195 20.4905 21.248 21.4375C20.286 22.3995 18.953 22.6885 17.64 22.7485C16.375 22.8065 15.995 22.8185 12.791 22.8185C9.58702 22.8185 9.20702 22.8065 7.94202 22.7485C6.65102 22.6895 5.27302 22.3775 4.33402 21.4375C3.37702 20.4805 3.08302 19.1335 3.02302 17.8295C2.96502 16.5645 2.95302 16.1845 2.95302 12.9805C2.95302 9.77647 2.96502 9.39647 3.02302 8.13147C3.08202 6.83547 3.39002 5.46747 4.33402 4.52347C5.29402 3.56347 6.63302 3.27247 7.94202 3.21247C9.20702 3.15447 9.58702 3.14247 12.791 3.14247ZM12.791 0.980469C9.53202 0.980469 9.12302 0.994469 7.84302 1.05247C5.98802 1.13747 4.14602 1.65347 2.80502 2.99447C1.45902 4.34047 0.948016 6.17847 0.863016 8.03247C0.805016 9.31247 0.791016 9.72147 0.791016 12.9805C0.791016 16.2395 0.805016 16.6485 0.863016 17.9285C0.948016 19.7815 1.46602 21.6285 2.80502 22.9665C4.15002 24.3115 5.99102 24.8235 7.84302 24.9085C9.12302 24.9665 9.53202 24.9805 12.791 24.9805C16.05 24.9805 16.459 24.9665 17.739 24.9085C19.593 24.8235 21.437 24.3065 22.777 22.9665C24.124 21.6195 24.634 19.7825 24.719 17.9285C24.777 16.6485 24.791 16.2395 24.791 12.9805C24.791 9.72147 24.777 9.31247 24.719 8.03247C24.634 6.17747 24.117 4.33447 22.777 2.99447C21.434 1.65147 19.588 1.13647 17.739 1.05247C16.459 0.994469 16.05 0.980469 12.791 0.980469Z" fill="#C1C1C1"/>
<path d="M12.7909 6.81836C9.38791 6.81836 6.62891 9.57736 6.62891 12.9804C6.62891 16.3834 9.38791 19.1424 12.7909 19.1424C16.1939 19.1424 18.9529 16.3834 18.9529 12.9804C18.9529 9.57736 16.1939 6.81836 12.7909 6.81836ZM12.7909 16.9804C10.5819 16.9804 8.79091 15.1894 8.79091 12.9804C8.79091 10.7714 10.5819 8.98036 12.7909 8.98036C14.9999 8.98036 16.7909 10.7714 16.7909 12.9804C16.7909 15.1894 14.9999 16.9804 12.7909 16.9804Z" fill="#C1C1C1"/>
<path d="M19.1978 8.01477C19.9931 8.01477 20.6378 7.37006 20.6378 6.57477C20.6378 5.77948 19.9931 5.13477 19.1978 5.13477C18.4025 5.13477 17.7578 5.77948 17.7578 6.57477C17.7578 7.37006 18.4025 8.01477 19.1978 8.01477Z" fill="#C1C1C1"/>
</svg>
