<svg width="25" height="22" viewBox="0 0 25 22" fill="none" xmlns="http://www.w3.org/2000/svg">
<path d="M23.7932 20.5649H24.0202L23.5852 19.9069C23.8512 19.9069 23.9922 19.7379 23.9942 19.5309C23.9942 19.5229 23.9942 19.5139 23.9932 19.5059C23.9932 19.2239 23.8232 19.0889 23.4742 19.0889H22.9102V20.5649H23.1222V19.9219H23.3832L23.7932 20.5649ZM23.3682 19.7549H23.1222V19.2559H23.4342C23.5952 19.2559 23.7792 19.2819 23.7792 19.4929C23.7792 19.7349 23.5932 19.7549 23.3672 19.7549" fill="#C1C1C1"/>
<path d="M18.082 18.0538H15.075V13.3448C15.075 12.2218 15.055 10.7768 13.511 10.7768C11.945 10.7768 11.705 11.9998 11.705 13.2638V18.0538H8.69902V8.36983H11.586V9.69283H11.626C12.215 8.68683 13.309 8.08583 14.474 8.12883C17.522 8.12883 18.083 10.1338 18.083 12.7408L18.082 18.0538ZM5.30602 7.04583C4.34202 7.04583 3.56102 6.26483 3.56102 5.30083C3.56102 4.33683 4.34202 3.55583 5.30602 3.55583C6.27002 3.55583 7.05102 4.33683 7.05102 5.30083C7.05102 6.26483 6.27002 7.04583 5.30602 7.04583ZM6.80902 18.0538H3.79902V8.36983H6.80902V18.0538ZM19.581 0.763832H2.28802C1.47102 0.754832 0.801016 1.40983 0.791016 2.22683V19.5908C0.801016 20.4088 1.47102 21.0638 2.28802 21.0548H19.581C20.4 21.0648 21.073 20.4098 21.084 19.5908V2.22583C21.072 1.40683 20.399 0.751832 19.581 0.762832" fill="#C1C1C1"/>
<path d="M23.3935 18.4316C22.6295 18.4386 22.0155 19.0646 22.0235 19.8286C22.0305 20.5926 22.6565 21.2066 23.4205 21.1986C24.1845 21.1916 24.7985 20.5656 24.7905 19.8016C24.7835 19.0476 24.1735 18.4386 23.4205 18.4316H23.3935ZM23.4255 21.0396C22.7555 21.0506 22.1715 20.5176 22.1605 19.8476C22.1495 19.1776 22.6835 18.6256 23.3535 18.6146C24.0235 18.6036 24.5755 19.1376 24.5865 19.8076C24.5865 19.8146 24.5865 19.8206 24.5865 19.8276C24.6005 20.4826 24.0805 21.0256 23.4255 21.0396H23.3945H23.4255Z" fill="#C1C1C1"/>
</svg>
