<svg width="37" height="37" viewBox="0 0 37 37" fill="none" xmlns="http://www.w3.org/2000/svg">
<g clip-path="url(#clip0_2813_30493)">
<path d="M4.93555 13.9502C4.93555 15.6077 8.29255 16.9502 12.4355 16.9502" stroke="#0C1718" stroke-width="2" stroke-linecap="round" stroke-linejoin="round"/>
<path d="M12.434 22.9502C8.29255 22.9502 4.93555 21.6077 4.93555 19.9502" stroke="#0C1718" stroke-width="2" stroke-linecap="round" stroke-linejoin="round"/>
<path d="M19.9355 7.9502H19.937V12.4502" stroke="#0C1718" stroke-width="2" stroke-linecap="round" stroke-linejoin="round"/>
<path d="M16.9355 24.4502C16.9355 26.1077 20.2925 27.4502 24.4355 27.4502C28.5785 27.4502 31.9355 26.1077 31.9355 24.4502" stroke="#0C1718" stroke-width="2" stroke-linecap="round" stroke-linejoin="round"/>
<path d="M16.9355 18.4502C16.9355 20.1077 20.2925 21.4502 24.4355 21.4502C28.5785 21.4502 31.9355 20.1077 31.9355 18.4502" stroke="#0C1718" stroke-width="2" stroke-linecap="round" stroke-linejoin="round"/>
<path d="M24.4365 15.4502C20.2965 15.4502 16.9365 16.7927 16.9395 18.4502" stroke="#0C1718" stroke-width="2" stroke-linecap="round" stroke-linejoin="round"/>
<path d="M16.9355 18.4502V30.4502C16.9355 32.1077 20.2925 33.4502 24.4355 33.4502" stroke="#0C1718" stroke-width="2" stroke-linecap="round" stroke-linejoin="round"/>
<path d="M24.4355 15.4502C28.5755 15.4502 31.9355 16.7927 31.9325 18.4502" stroke="#0C1718" stroke-width="2" stroke-linecap="round" stroke-linejoin="round"/>
<path d="M31.9355 18.4502V30.4502C31.9355 32.1077 28.5785 33.4502 24.4355 33.4502" stroke="#0C1718" stroke-width="2" stroke-linecap="round" stroke-linejoin="round"/>
<path d="M12.4355 28.9502C8.29405 28.9502 4.93555 27.6077 4.93555 25.9502" stroke="#0C1718" stroke-width="2" stroke-linecap="round" stroke-linejoin="round"/>
<path d="M12.4355 10.9502C16.5777 10.9502 19.9355 9.60705 19.9355 7.9502C19.9355 6.29334 16.5777 4.9502 12.4355 4.9502C8.29341 4.9502 4.93555 6.29334 4.93555 7.9502C4.93555 9.60705 8.29341 10.9502 12.4355 10.9502Z" stroke="#0C1718" stroke-width="2" stroke-linecap="round" stroke-linejoin="round"/>
<path d="M4.93555 7.9502V25.9502" stroke="#0C1718" stroke-width="2" stroke-linecap="round" stroke-linejoin="round"/>
</g>
<defs>
<clipPath id="clip0_2813_30493">
<rect width="36" height="36" fill="white" transform="translate(0.435547 0.450195)"/>
</clipPath>
</defs>
</svg>
