<svg width="27" height="29" viewBox="0 0 27 29" fill="none" xmlns="http://www.w3.org/2000/svg">
<path d="M18.4985 17.5968L18.8532 17.0635V17.0635C20.3477 14.8229 23.1568 13.8596 25.7119 14.7115" stroke="white" stroke-width="2" stroke-linecap="round" stroke-linejoin="round"/>
<path d="M11.1318 15.4769L12.7318 7.4982L14.4785 8.37153V8.37153C15.127 8.69533 15.9151 8.4876 16.3198 7.8862L17.8451 5.59687V5.59687C18.2259 5.02467 18.1506 4.26339 17.6651 3.77687L15.7451 1.85687V1.85687C14.8549 0.966427 13.4326 0.901671 12.4651 1.70753L12.4651 1.70753C7.92229 5.49287 4.52485 10.4699 2.65447 16.0795L1.85447 18.4609V18.4609C1.45542 19.6639 1.88816 20.9864 2.92114 21.7209L4.96247 23.1795H4.96247C8.90186 25.9941 14.0034 26.6086 18.4985 24.8102L19.9411 27.6955" stroke="white" stroke-width="2" stroke-linecap="round" stroke-linejoin="round"/>
<path d="M18.4985 16.1529V16.1529C15.8776 14.4061 12.4635 14.4061 9.84253 16.1529" stroke="white" stroke-width="2" stroke-linecap="round" stroke-linejoin="round"/>
</svg>
