<svg width="41" height="41" viewBox="0 0 41 41" fill="none" xmlns="http://www.w3.org/2000/svg">
<path d="M3.95886 14.5632H37.7089" stroke="#7E8D93" stroke-width="2" stroke-linecap="round" stroke-linejoin="round"/>
<path d="M20.8339 34.5632H9.58386C8.09202 34.5632 6.66128 33.9424 5.60639 32.8373C4.55149 31.7321 3.95886 30.2333 3.95886 28.6704V12.9561C3.95886 11.3932 4.55149 9.89434 5.60639 8.78921C6.66128 7.68409 8.09202 7.06323 9.58386 7.06323H32.0839C33.5757 7.06323 35.0064 7.68409 36.0613 8.78921C37.1162 9.89434 37.7089 11.3932 37.7089 12.9561V22.7775" stroke="#7E8D93" stroke-width="2" stroke-linecap="round" stroke-linejoin="round"/>
<path d="M32.7089 28.3132L28.9589 32.0632" stroke="#7E8D93" stroke-width="2" stroke-linecap="round" stroke-linejoin="round"/>
<path d="M36.4589 32.0632L32.7089 28.3132" stroke="#7E8D93" stroke-width="2" stroke-linecap="round" stroke-linejoin="round"/>
<path d="M32.7089 38.3132V28.3132" stroke="#7E8D93" stroke-width="2" stroke-linecap="round" stroke-linejoin="round"/>
<path d="M15.2089 22.0632H11.4589" stroke="#7E8D93" stroke-width="2" stroke-linecap="round" stroke-linejoin="round"/>
</svg>
