<svg width="56" height="57" viewBox="0 0 56 57" fill="none" xmlns="http://www.w3.org/2000/svg">
<g clip-path="url(#clip0_2813_30915)">
<path d="M1.16127 24.662L1.02237 27.0052L2.31472 27.0837L2.42947 25.1633L3.38363 25.2176L3.26889 27.138L5.23762 27.2588L5.17723 28.3156L0.0078125 28.0076L0.21314 24.6077L1.16731 24.662H1.16127Z" fill="white"/>
<path d="M4.53691 18.1519C5.99231 18.5988 6.74115 20.1206 6.3003 21.5821C5.85342 23.0375 4.38593 23.8709 2.93052 23.424C1.47511 22.9771 0.720234 21.4673 1.16712 20.0119C1.61401 18.5565 3.08754 17.711 4.54294 18.1519H4.53691ZM3.24455 22.3792C4.20476 22.6751 5.08042 22.2101 5.35821 21.2861C5.63601 20.3803 5.17704 19.4926 4.21684 19.1966C3.26267 18.9068 2.38097 19.3839 2.10317 20.2897C1.81934 21.2137 2.29038 22.0893 3.24455 22.3792Z" fill="white"/>
<path d="M9.24147 15.2049L6.97683 15.3921L6.57221 16.0564L8.13028 17.0105L7.57469 17.9164L3.16016 15.2049L4.18075 13.5441C4.75446 12.6141 5.72071 12.3001 6.58429 12.8255C7.15196 13.1757 7.41768 13.7495 7.35729 14.3715L9.86349 14.1903L9.24147 15.2049V15.2049ZM5.77506 15.5672L6.24007 14.8123C6.49974 14.3896 6.39708 13.985 6.01662 13.7555C5.64824 13.5321 5.23759 13.6166 4.97791 14.0393L4.5129 14.7942L5.77506 15.5732V15.5672Z" fill="white"/>
<path d="M10.7885 7.35414L10.6858 8.32643C10.1061 8.22376 9.57466 8.35058 9.12174 8.79747C8.40309 9.50404 8.43329 10.4763 9.12174 11.1769C9.8283 11.8955 10.8247 11.9378 11.5675 11.207C11.9963 10.7843 12.1654 10.271 12.0929 9.78787L11.797 9.48592L10.7764 10.4884L10.1303 9.83015L11.9057 8.08487L12.9807 9.17793C13.2283 10.0777 12.9928 11.1406 12.2016 11.9136C11.0905 13.0006 9.41161 13.0248 8.3427 11.9378C7.27379 10.8507 7.3221 9.17189 8.43932 8.07883C9.09758 7.43265 9.93701 7.19109 10.7825 7.3481L10.7885 7.35414Z" fill="white"/>
<path d="M15.7168 4.07491L13.6333 5.31895L14.1768 6.2248L15.7047 5.30687L16.1697 6.07987L14.6418 6.9978L15.3182 8.12106L17.4802 6.82267L17.9754 7.64398L14.9015 9.48588L12.2383 5.04115L15.2276 3.24756L15.7228 4.06887L15.7168 4.07491Z" fill="white"/>
<path d="M21.4099 1.91294L19.8337 2.45041L21.1925 6.44825L20.19 6.78644L18.8313 2.7886L17.2611 3.32003L16.9531 2.41418L21.1019 1.00708L21.4099 1.91294V1.91294Z" fill="white"/>
<path d="M29.3382 1.13386L27.6714 1.18821L27.8043 5.40949L26.7474 5.44573L26.6146 1.22444L24.9599 1.27879L24.9297 0.318585L29.308 0.179688L29.3382 1.13989V1.13386Z" fill="white"/>
<path d="M31.5547 5.6812L30.5039 5.5423L31.1803 0.403076L32.2311 0.541974L31.5547 5.6812Z" fill="white"/>
<path d="M36.098 6.85278L35.3673 4.70288L34.6245 4.46736L34.0749 6.21264L33.0664 5.89257L34.6305 0.952637L36.4845 1.53842C37.5232 1.86453 38.0667 2.72811 37.7587 3.69436C37.5595 4.32846 37.0642 4.72704 36.4483 4.81762L37.2333 7.20908L36.098 6.84674V6.85278ZM34.9144 3.57962L35.7598 3.84534C36.2309 3.99631 36.5992 3.79702 36.7321 3.37429C36.865 2.96364 36.6778 2.58318 36.2067 2.4322L35.3612 2.16648L34.9144 3.57962Z" fill="white"/>
<path d="M43.1879 5.77782L41.0923 4.55794L40.5609 5.46379L42.1008 6.36361L41.6479 7.14265L40.108 6.24283L39.4497 7.37817L41.6298 8.64637L41.1467 9.47371L38.0547 7.66804L40.6636 3.19312L43.677 4.95048L43.1939 5.77782H43.1879Z" fill="white"/>
<path d="M48.8752 9.4375L45.2397 13.2662L44.9861 13.0247L45.0163 8.63431L42.8724 10.8869L42.1055 10.1561L45.741 6.32739L45.9946 6.56292L45.9825 10.9412L48.1083 8.70073L48.8752 9.43146V9.4375Z" fill="white"/>
<path d="M51.6347 14.9513L50.3061 12.9222L49.4244 13.502L50.4027 14.9936L49.6479 15.4888L48.6695 13.9972L47.5704 14.7158L48.9534 16.8235L48.1502 17.3488L46.1875 14.3535L50.5235 11.5151L52.4319 14.432L51.6287 14.9574L51.6347 14.9513Z" fill="white"/>
<path d="M53.8892 19.9755L53.1041 19.5044C53.3638 19.13 53.4544 18.7616 53.3034 18.363C53.1766 18.043 52.9229 17.8195 52.6028 17.9464C52.3251 18.0551 52.2888 18.3147 52.2647 18.7254L52.2405 19.3655C52.1982 20.2593 51.9808 20.8391 51.2924 21.1108C50.3926 21.4611 49.5592 20.9417 49.1848 19.9876C48.8586 19.1542 49.0217 18.3147 49.5229 17.7048L50.302 18.1879C50.0363 18.5925 49.837 19.0696 50.0604 19.6494C50.2235 20.0721 50.5254 20.2593 50.8636 20.1264C51.1776 20.0057 51.1958 19.7279 51.2259 19.2749L51.2561 18.665C51.3045 17.8558 51.5098 17.2156 52.1862 16.9499C53.0195 16.6238 53.8227 17.113 54.179 18.0188C54.481 18.7858 54.2998 19.4803 53.8892 19.9694V19.9755Z" fill="white"/>
<path d="M55.0133 25.3806L54.343 24.7586C54.6751 24.4506 54.8382 24.1004 54.7657 23.6837C54.7053 23.3455 54.506 23.0737 54.1618 23.1341C53.8659 23.1824 53.7813 23.43 53.6726 23.8286L53.5156 24.4506C53.2982 25.3142 52.96 25.8396 52.2353 25.9664C51.2812 26.1295 50.5746 25.4531 50.3995 24.4385C50.2485 23.5568 50.5806 22.7657 51.1966 22.2766L51.8609 22.9046C51.5227 23.2489 51.2268 23.6716 51.3295 24.2815C51.408 24.7284 51.6616 24.976 52.0179 24.9156C52.3501 24.8613 52.4225 24.5895 52.5433 24.1607L52.7003 23.5689C52.9117 22.7838 53.2439 22.2041 53.9625 22.0833C54.8442 21.9323 55.5327 22.5725 55.6957 23.5327C55.8346 24.348 55.5206 24.9881 55.0133 25.3867V25.3806Z" fill="white"/>
<path d="M52.4508 35.6168C50.9531 35.339 50.0412 33.9017 50.325 32.41C50.6089 30.9184 51.9737 29.922 53.4714 30.2058C54.9691 30.4836 55.881 31.9028 55.6032 33.4004C55.3254 34.8981 53.9545 35.9006 52.4568 35.6228L52.4508 35.6168ZM53.266 31.2747C52.2817 31.0875 51.4604 31.6491 51.2852 32.5973C51.1101 33.5273 51.6657 34.3606 52.6501 34.5479C53.6284 34.729 54.4557 34.1614 54.6309 33.2253C54.806 32.2772 54.2444 31.4619 53.266 31.2747Z" fill="white"/>
<path d="M52.2094 42.4227L47.4688 40.1097L47.6258 39.7896L51.8169 38.4973L49.0208 37.1385L49.4858 36.1843L54.2264 38.4912L54.0755 38.7992L49.9025 40.1097L52.6744 41.4624L52.2094 42.4166V42.4227Z" fill="white"/>
<path d="M45.0484 46.2817L43.6172 44.8263L44.3721 44.0835L45.7973 45.5329L49.2758 46.5233L48.4363 47.3506L46.1838 46.6803L46.8118 48.951L45.9784 49.7723L45.0484 46.2877V46.2817Z" fill="white"/>
<path d="M38.5989 51.4452C37.8199 50.1348 38.297 48.5042 39.6014 47.7252C40.9059 46.9462 42.5545 47.3206 43.3335 48.631C44.1126 49.9415 43.6536 51.566 42.3431 52.339C41.0327 53.1181 39.378 52.7497 38.5989 51.4452ZM42.3975 49.1866C41.8842 48.3231 40.93 48.0815 40.0966 48.5707C39.2814 49.0538 39.0217 50.02 39.535 50.8836C40.0423 51.7412 41.0206 51.9827 41.8359 51.4996C42.6632 51.0044 42.9048 50.0442 42.3975 49.1866Z" fill="white"/>
<path d="M32.587 52.8222C32.2126 51.4815 32.895 50.4126 34.1088 50.0804C35.3287 49.7423 36.452 50.3099 36.8264 51.6506L37.6417 54.5795L36.6211 54.8634L35.7877 51.862C35.5824 51.1131 34.9966 50.8595 34.3746 51.0286C33.7465 51.2037 33.3842 51.717 33.5955 52.4659L34.4289 55.4673L33.4083 55.7511L32.593 52.8222H32.587Z" fill="white"/>
<path d="M27.4436 51.0283L28.8447 52.8158L29.6237 52.7917L29.5693 50.9618L30.6262 50.9316L30.7832 56.1131L28.8386 56.1735C27.7455 56.2037 26.9484 55.5696 26.9182 54.5611C26.9001 53.8908 27.2322 53.3593 27.7818 53.0634L26.2539 51.0645L27.4496 51.0283H27.4436ZM29.6478 53.7277L28.7601 53.7519C28.2649 53.7639 27.9811 54.0719 27.9992 54.5188C28.0113 54.9476 28.3132 55.2495 28.8084 55.2314L29.6962 55.2073L29.6478 53.7217V53.7277Z" fill="white"/>
<path d="M18.3008 53.565L19.1583 53.2449C19.2851 53.6797 19.5207 53.9816 19.9253 54.1085C20.2574 54.2111 20.5896 54.1507 20.6922 53.8186C20.7828 53.5348 20.6017 53.3475 20.2937 53.0698L19.8105 52.647C19.1402 52.0612 18.8201 51.5238 19.0375 50.8172C19.3214 49.8932 20.2514 49.5671 21.2297 49.8691C22.0873 50.1348 22.6368 50.787 22.7999 51.56L21.9363 51.868C21.7853 51.409 21.5377 50.9561 20.9459 50.7689C20.5111 50.636 20.1789 50.7508 20.0702 51.095C19.9676 51.4151 20.1729 51.6023 20.5111 51.9042L20.97 52.3088C21.5739 52.8524 21.9423 53.4079 21.7249 54.1085C21.4592 54.966 20.5775 55.2921 19.6475 55.0022C18.8624 54.7546 18.4276 54.187 18.3008 53.5589V53.565Z" fill="white"/>
<path d="M15.5175 47.3144L16.0852 50.7627L17.438 48.4256L18.3559 48.957L15.7591 53.438L14.8412 52.9065L16.049 50.8231L13.1321 51.9161L12.0391 51.282L14.9801 50.1648L14.4124 46.6682L15.5175 47.3084V47.3144Z" fill="white"/>
<path d="M12.8577 45.2432L13.6669 45.9316L10.3092 49.8811L9.5 49.1927L12.8577 45.2432Z" fill="white"/>
<path d="M4.90625 44.1259L9.00072 40.7983L9.22416 41.0701L8.6263 45.4182L11.0359 43.4616L11.7062 44.2829L7.61174 47.6104L7.39433 47.3447L7.96804 43.0086L5.57658 44.9532L4.90625 44.1319V44.1259Z" fill="white"/>
<path d="M3.59337 34.3486C4.26975 34.1433 4.94612 34.5238 5.15145 35.2001C5.35677 35.8705 5.01255 36.5831 4.33618 36.7884C3.65376 36.9998 2.97135 36.5951 2.76603 35.9308C2.5607 35.2545 2.90492 34.56 3.58734 34.3486H3.59337Z" fill="white"/>
<path d="M28.2094 40.9432C24.0183 40.9432 19.8212 39.4576 16.5541 36.4864C16.1857 36.1482 16.1555 35.5745 16.4937 35.2062C16.8319 34.8378 17.4056 34.8076 17.7739 35.1458C23.6258 40.4662 32.793 40.4662 38.6449 35.1458C39.0132 34.8076 39.5869 34.8378 39.9251 35.2062C40.2633 35.5745 40.2331 36.1482 39.8647 36.4864C36.5976 39.4576 32.4005 40.9432 28.2094 40.9432V40.9432Z" fill="white"/>
<path d="M27.949 37.0723C22.9607 37.0723 18.4314 34.3245 16.1125 29.8556C15.6656 28.9498 15.43 27.9775 15.418 26.9508C15.418 26.9388 15.418 26.9327 15.418 26.9207V26.9086C15.418 25.9001 15.6595 24.8976 16.1064 23.9857C18.4375 19.4987 22.9668 16.7509 27.9852 16.7509C28.0698 16.7509 28.1543 16.7509 28.2388 16.7509C33.3116 16.6784 37.9677 19.4202 40.329 23.9676C41.2469 25.8155 41.2469 28.0016 40.335 29.8375C38.01 34.3185 33.4747 37.0662 28.4563 37.0662C28.3717 37.0662 28.2872 37.0662 28.2026 37.0662C28.1181 37.0662 28.0335 37.0662 27.955 37.0662L27.949 37.0723ZM17.2297 26.9025C17.2418 27.6635 17.4109 28.3821 17.7309 29.0343C19.7298 32.8812 23.6492 35.2545 27.9852 35.2545C28.0577 35.2545 28.1301 35.2545 28.2026 35.2545C32.6473 35.3511 36.6754 32.9476 38.7166 29.0162C39.3688 27.6997 39.3688 26.1175 38.7105 24.7889C36.7116 20.942 32.7923 18.5626 28.4563 18.5626C28.3838 18.5626 28.3113 18.5626 28.2388 18.5626C23.77 18.46 19.7661 20.8695 17.7249 24.8009C17.4048 25.4471 17.2357 26.1779 17.2297 26.8965V26.9025Z" fill="white"/>
<path d="M28.2105 31.8245C25.505 31.8245 23.3008 29.6263 23.3008 26.9208C23.3008 24.2153 25.505 22.0171 28.2105 22.0171C30.916 22.0171 33.1203 24.2153 33.1203 26.9208C33.1203 29.6263 30.916 31.8245 28.2105 31.8245ZM28.2105 23.8228C26.5015 23.8228 25.1125 25.2117 25.1125 26.9148C25.1125 28.6178 26.5015 30.0067 28.2105 30.0067C29.9196 30.0067 31.3085 28.6178 31.3085 26.9148C31.3085 25.2117 29.9196 23.8228 28.2105 23.8228Z" fill="white"/>
</g>
<defs>
<clipPath id="clip0_2813_30915">
<rect width="55.7222" height="56" fill="white" transform="translate(0 0.173828)"/>
</clipPath>
</defs>
</svg>
