<svg width="37" height="37" viewBox="0 0 37 37" fill="none" xmlns="http://www.w3.org/2000/svg">
<path d="M10.5176 28.9502H7.68556C6.81106 28.9502 6.10156 28.2407 6.10156 27.3662V16.2842C6.10156 15.4097 6.81106 14.7002 7.68556 14.7002H10.5176C11.3921 14.7002 12.1016 15.4097 12.1016 16.2842V27.3662C12.1016 28.2407 11.3921 28.9502 10.5176 28.9502V28.9502Z" stroke="#0C1718" stroke-width="2" stroke-linecap="round" stroke-linejoin="round"/>
<path d="M12.1016 16.3085L17.5751 9.18204C18.5936 7.85454 20.5826 7.82154 21.6461 9.11304C22.0436 9.59454 22.2596 10.2005 22.2596 10.8245V15.731H26.9036C27.8051 15.731 28.6466 16.181 29.1476 16.9295L29.6411 17.666C30.0836 18.3275 30.2126 19.151 29.9921 19.9145L27.9536 26.9975C27.6206 28.154 26.5631 28.9505 25.3601 28.9505H15.9266C15.1766 28.9505 14.4596 28.6385 13.9496 28.0895L12.1016 26.1005" stroke="#0C1718" stroke-width="2" stroke-linecap="round" stroke-linejoin="round"/>
</svg>
