<svg width="23" height="17" viewBox="0 0 23 17" fill="none" xmlns="http://www.w3.org/2000/svg">
<path d="M6.23682 14.6721H14.7568" stroke="#7E8D93" stroke-width="1.6" stroke-linecap="round" stroke-linejoin="round"/>
<path d="M16.2568 13.1721C15.859 13.1721 15.4775 13.3301 15.1962 13.6114C14.9149 13.8927 14.7568 14.2742 14.7568 14.6721C14.7568 15.0699 14.9149 15.4514 15.1962 15.7327C15.4775 16.014 15.859 16.1721 16.2568 16.1721C16.6547 16.1721 17.0362 16.014 17.3175 15.7327C17.5988 15.4514 17.7568 15.0699 17.7568 14.6721C17.7568 14.2742 17.5988 13.8927 17.3175 13.6114C17.0362 13.3301 16.6547 13.1721 16.2568 13.1721Z" stroke="#7E8D93" stroke-width="1.6" stroke-linecap="round" stroke-linejoin="round"/>
<path d="M4.72681 13.1721C4.32898 13.1721 3.94745 13.3301 3.66615 13.6114C3.38484 13.8927 3.22681 14.2742 3.22681 14.6721C3.22681 15.0699 3.38484 15.4514 3.66615 15.7327C3.94745 16.014 4.32898 16.1721 4.72681 16.1721C5.12463 16.1721 5.50616 16.014 5.78747 15.7327C6.06877 15.4514 6.22681 15.0699 6.22681 14.6721C6.22681 14.2742 6.06877 13.8927 5.78747 13.6114C5.50616 13.3301 5.12463 13.1721 4.72681 13.1721Z" stroke="#7E8D93" stroke-width="1.6" stroke-linecap="round" stroke-linejoin="round"/>
<path d="M1.25682 10.032H13.7568H13.7468C14.0168 10.032 14.2468 9.80205 14.2468 9.53205V3.16205C14.2468 2.05205 13.3468 1.16205 12.2468 1.16205H3.24682H3.23682C2.12682 1.16205 1.23682 2.05205 1.23682 3.16205V13.662C1.23682 14.212 1.67682 14.652 2.23682 14.652H3.20682" stroke="#7E8D93" stroke-width="1.6" stroke-linecap="round" stroke-linejoin="round"/>
<path d="M14.2568 3.17207H17.4968V3.17107C18.5468 3.16107 19.4868 3.82107 19.8468 4.81107L21.1268 8.35107C21.1968 8.56107 21.2368 8.79107 21.2368 9.03107V13.1511C21.2368 13.9711 20.5568 14.6511 19.7368 14.6511H17.7368" stroke="#7E8D93" stroke-width="1.6" stroke-linecap="round" stroke-linejoin="round"/>
<path d="M21.2568 9.17205H18.2568L17.5468 8.46205C17.3568 8.27205 17.0968 8.16205 16.8368 8.16205H14.2468" stroke="#7E8D93" stroke-width="1.6" stroke-linecap="round" stroke-linejoin="round"/>
</svg>
