<svg width="25" height="20" viewBox="0 0 25 20" fill="none" xmlns="http://www.w3.org/2000/svg">
<path d="M22.334 5.08481C22.348 5.29581 22.348 5.50781 22.348 5.72081C22.348 12.2278 17.394 19.7308 8.33802 19.7308V19.7268C5.66302 19.7308 3.04302 18.9648 0.791016 17.5198C1.18002 17.5668 1.57102 17.5898 1.96302 17.5908C4.18102 17.5928 6.33502 16.8488 8.07802 15.4788C5.97102 15.4388 4.12302 14.0648 3.47802 12.0588C4.21602 12.2008 4.97602 12.1718 5.70102 11.9748C3.40302 11.5108 1.75102 9.49181 1.75102 7.14781C1.75102 7.12681 1.75102 7.10581 1.75102 7.08581C2.43602 7.46781 3.20202 7.67881 3.98602 7.70181C1.82202 6.25681 1.15402 3.37881 2.46102 1.12881C4.96102 4.20481 8.65002 6.07481 12.609 6.27381C12.212 4.56381 12.755 2.77181 14.033 1.56881C16.016 -0.296191 19.135 -0.200191 21 1.78281C22.103 1.56581 23.16 1.16081 24.127 0.58781C23.759 1.72781 22.99 2.69581 21.962 3.31181C22.939 3.19481 23.892 2.93381 24.791 2.53581C24.13 3.52481 23.298 4.38781 22.334 5.08481Z" fill="#C1C1C1"/>
</svg>
