<svg width="22" height="25" viewBox="0 0 22 25" fill="none" xmlns="http://www.w3.org/2000/svg">
<path d="M21.2561 10.8465C19.1171 10.8465 17.1341 10.1625 15.5161 9.00047V17.3855C15.5161 21.5735 12.1091 24.9795 7.92212 24.9795C6.30412 24.9795 4.80312 24.4695 3.57012 23.6035C1.61212 22.2285 0.328125 19.9545 0.328125 17.3855C0.328125 13.1975 3.73513 9.79047 7.92313 9.79047C8.27113 9.79047 8.61112 9.81947 8.94613 9.86447V10.8415V14.0765C8.62212 13.9755 8.28013 13.9165 7.92313 13.9165C6.01113 13.9165 4.45512 15.4725 4.45512 17.3855C4.45512 18.7175 5.21113 19.8745 6.31513 20.4555C6.79613 20.7085 7.34313 20.8535 7.92413 20.8535C9.79213 20.8535 11.3161 19.3675 11.3861 17.5155L11.3891 0.980469H15.5151C15.5151 1.33847 15.5501 1.68747 15.6121 2.02747C15.9031 3.59947 16.8361 4.94847 18.1291 5.79147C19.0291 6.37847 20.1031 6.72147 21.2551 6.72147V10.8465H21.2561Z" fill="#C1C1C1"/>
</svg>
