<svg width="1029" height="737" viewBox="0 0 1029 737" fill="none" xmlns="http://www.w3.org/2000/svg">
<path d="M840.639 21.0882C776.777 132.32 622.128 392.251 616.795 401.521C580.897 266.137 546.169 135.322 510.141 0.0690918C494.793 26.0492 404.137 180.102 391.52 201.774C378.514 223.968 289.548 375.149 272.25 403.218C241.814 273.317 212.289 147.072 182.894 21.3493C120.723 21.3493 60.632 21.3493 0.28125 21.3493C9.25582 59.732 186.146 771.248 195.901 810.675C281.224 668.502 362.386 527.113 449.4 381.938C489.46 527.635 526.789 664.716 566.85 810.675C718.507 555.574 882.26 279.323 1028.71 21.2188H840.639V21.0882Z" fill="#A63829"/>
</svg>
