<svg width="375" height="499" viewBox="0 0 375 499" fill="none" xmlns="http://www.w3.org/2000/svg">
<path d="M270.193 13.8207C228.153 86.9591 126.351 257.873 122.84 263.968C99.2092 174.948 76.3485 88.9335 52.6317 0C42.5285 17.0828 -17.1489 118.378 -25.454 132.628C-34.0161 147.221 -92.5804 246.627 -103.968 265.084C-124.003 179.67 -143.439 96.6594 -162.789 13.9924C-203.716 13.9924 -243.272 13.9924 -283 13.9924C-277.092 39.2303 -160.649 507.075 -154.227 533C-98.0601 439.517 -44.633 346.549 12.647 251.091C39.018 346.892 63.5911 437.027 89.9621 533C189.795 365.263 297.591 183.618 394 13.9066H270.193V13.8207Z" fill="#A63829"/>
</svg>
