<svg width="48" height="48" viewBox="0 0 48 48" fill="none" xmlns="http://www.w3.org/2000/svg">
<g clip-path="url(#clip0_3028_30817)">
<path d="M18.6393 22.4828C18.0971 23.4231 17.812 24.4895 17.8125 25.5749C17.813 26.6603 18.0991 27.7265 18.6421 28.6663C19.1851 29.6061 19.9659 30.3865 20.9059 30.9291C21.846 31.4716 22.9123 31.7573 23.9977 31.7573C25.0831 31.7573 26.1494 31.4716 27.0895 30.9291C28.0295 30.3865 28.8103 29.6061 29.3533 28.6663C29.8963 27.7265 30.1824 26.6603 30.1829 25.5749C30.1834 24.4895 29.8983 23.4231 29.3561 22.4828L23.9987 14.2358L18.6382 22.4828H18.6393Z" stroke="#0C1718" stroke-width="2" stroke-linecap="round" stroke-linejoin="round"/>
<circle cx="23.9961" cy="24" r="17" stroke="#0C1718" stroke-width="2"/>
</g>
<defs>
<clipPath id="clip0_3028_30817">
<rect width="48" height="48" fill="white"/>
</clipPath>
</defs>
</svg>
